<svg width="42" height="42" viewBox="0 0 42 42" fill="none" xmlns="http://www.w3.org/2000/svg">
<path d="M21 26.25C22.4175 26.25 23.625 25.725 24.6925 24.6925C25.725 23.625 26.25 22.4175 26.25 21C26.25 19.5825 25.725 18.375 24.6925 17.3075C23.625 16.275 22.4175 15.75 21 15.75C19.5825 15.75 18.375 16.275 17.3075 17.3075C16.275 18.375 15.75 19.5825 15.75 21C15.75 22.4175 16.275 23.625 17.3075 24.6925C18.375 25.725 19.5825 26.25 21 26.25ZM21 3.5C25.8125 3.5 29.925 5.25 33.3375 8.6625C36.75 12.075 38.5 16.1875 38.5 21V23.5375C38.5 25.2875 37.8875 26.775 36.75 28C35.525 29.1725 34.125 29.75 32.375 29.75C30.275 29.75 28.5425 28.875 27.23 27.125C25.48 28.875 23.415 29.75 21 29.75C18.6025 29.75 16.5375 28.875 14.805 27.195C13.125 25.4625 12.25 23.415 12.25 21C12.25 18.6025 13.125 16.5375 14.805 14.805C16.5375 13.125 18.6025 12.25 21 12.25C23.415 12.25 25.4625 13.125 27.195 14.805C28.875 16.5375 29.75 18.6025 29.75 21V23.5375C29.75 24.255 30.03 24.885 30.555 25.4275C31.08 25.97 31.6925 26.25 32.375 26.25C33.11 26.25 33.7225 25.97 34.2475 25.4275C34.7725 24.885 35 24.255 35 23.5375V21C35 17.1675 33.6525 13.8775 30.8875 11.1125C28.1225 8.3475 24.8325 7 21 7C17.1675 7 13.8775 8.3475 11.1125 11.1125C8.3475 13.8775 7 17.1675 7 21C7 24.8325 8.3475 28.1225 11.1125 30.8875C13.8775 33.6525 17.1675 35 21 35H29.75V38.5H21C16.1875 38.5 12.075 36.75 8.6625 33.3375C5.25 29.925 3.5 25.8125 3.5 21C3.5 16.1875 5.25 12.075 8.6625 8.6625C12.075 5.25 16.1875 3.5 21 3.5Z" fill="#D6E8EE"/>
</svg>
