<svg width="42" height="42" viewBox="0 0 42 42" fill="none" xmlns="http://www.w3.org/2000/svg">
<path d="M21 3.57007C11.375 3.57007 3.5 11.4276 3.5 21.1051C3.5 29.8551 9.905 37.1176 18.27 38.4301V26.1801H13.825V21.1051H18.27V17.2376C18.27 12.8451 20.8775 10.4301 24.885 10.4301C26.7925 10.4301 28.7875 10.7626 28.7875 10.7626V15.0851H26.5825C24.4125 15.0851 23.73 16.4326 23.73 17.8151V21.1051H28.595L27.8075 26.1801H23.73V38.4301C27.8538 37.7788 31.6089 35.6747 34.3174 32.4977C37.0259 29.3206 38.5094 25.2799 38.5 21.1051C38.5 11.4276 30.625 3.57007 21 3.57007Z" fill="#D6E8EE"/>
</svg>
