<svg width="42" height="42" viewBox="0 0 42 42" fill="none" xmlns="http://www.w3.org/2000/svg">
<path d="M13.6499 3.49976H28.3499C33.9499 3.49976 38.4999 8.04976 38.4999 13.6498V28.3498C38.4999 31.0417 37.4306 33.6234 35.5271 35.5269C33.6236 37.4304 31.0419 38.4998 28.3499 38.4998H13.6499C8.04994 38.4998 3.49994 33.9498 3.49994 28.3498V13.6498C3.49994 10.9578 4.56931 8.37612 6.47281 6.47262C8.3763 4.56913 10.958 3.49976 13.6499 3.49976ZM13.2999 6.99976C11.6291 6.99976 10.0266 7.6635 8.84517 8.84498C7.66369 10.0265 6.99994 11.6289 6.99994 13.2998V28.6998C6.99994 32.1823 9.81744 34.9998 13.2999 34.9998H28.6999C30.3708 34.9998 31.9732 34.336 33.1547 33.1545C34.3362 31.973 34.9999 30.3706 34.9999 28.6998V13.2998C34.9999 9.81726 32.1824 6.99976 28.6999 6.99976H13.2999ZM30.1874 9.62475C30.7676 9.62475 31.324 9.85522 31.7342 10.2655C32.1445 10.6757 32.3749 11.2321 32.3749 11.8123C32.3749 12.3924 32.1445 12.9488 31.7342 13.3591C31.324 13.7693 30.7676 13.9998 30.1874 13.9998C29.6073 13.9998 29.0509 13.7693 28.6406 13.3591C28.2304 12.9488 27.9999 12.3924 27.9999 11.8123C27.9999 11.2321 28.2304 10.6757 28.6406 10.2655C29.0509 9.85522 29.6073 9.62475 30.1874 9.62475ZM20.9999 12.2498C23.3206 12.2498 25.5462 13.1716 27.1871 14.8126C28.8281 16.4535 29.7499 18.6791 29.7499 20.9998C29.7499 23.3204 28.8281 25.546 27.1871 27.1869C25.5462 28.8279 23.3206 29.7498 20.9999 29.7498C18.6793 29.7498 16.4537 28.8279 14.8128 27.1869C13.1718 25.546 12.2499 23.3204 12.2499 20.9998C12.2499 18.6791 13.1718 16.4535 14.8128 14.8126C16.4537 13.1716 18.6793 12.2498 20.9999 12.2498ZM20.9999 15.7498C19.6075 15.7498 18.2722 16.3029 17.2876 17.2874C16.3031 18.272 15.7499 19.6074 15.7499 20.9998C15.7499 22.3921 16.3031 23.7275 17.2876 24.7121C18.2722 25.6966 19.6075 26.2498 20.9999 26.2498C22.3923 26.2498 23.7277 25.6966 24.7122 24.7121C25.6968 23.7275 26.2499 22.3921 26.2499 20.9998C26.2499 19.6074 25.6968 18.272 24.7122 17.2874C23.7277 16.3029 22.3923 15.7498 20.9999 15.7498Z" fill="#D6E8EE"/>
</svg>
