<svg width="42" height="42" viewBox="0 0 42 42" fill="none" xmlns="http://www.w3.org/2000/svg">
<path d="M21.07 3.5001C11.515 3.5001 3.72752 11.2876 3.72752 20.8426C3.72752 23.9051 4.53252 26.8801 6.03752 29.5051L3.58752 38.5001L12.775 36.0851C15.3125 37.4676 18.165 38.2026 21.07 38.2026C30.625 38.2026 38.4125 30.4151 38.4125 20.8601C38.4125 16.2226 36.61 11.8651 33.3375 8.5926C31.7331 6.97197 29.8221 5.68702 27.7159 4.81269C25.6097 3.93836 23.3505 3.49216 21.07 3.5001ZM21.0875 6.4226C24.9375 6.4226 28.5425 7.9276 31.2725 10.6576C32.6123 11.997 33.6746 13.5877 34.3983 15.3384C35.122 17.0892 35.493 18.9656 35.49 20.8601C35.49 28.8051 29.015 35.2626 21.07 35.2626C18.48 35.2626 15.9425 34.5801 13.7375 33.2501L13.2125 32.9526L7.75252 34.3876L9.20503 29.0676L8.85502 28.5076C7.40942 26.2128 6.6448 23.5548 6.65002 20.8426C6.66752 12.8976 13.125 6.4226 21.0875 6.4226ZM14.9275 12.8276C14.6475 12.8276 14.175 12.9326 13.7725 13.3701C13.3875 13.8076 12.25 14.8751 12.25 16.9926C12.25 19.1276 13.8075 21.1751 14 21.4726C14.245 21.7701 17.08 26.1451 21.4375 28.0001C22.47 28.4726 23.275 28.7351 23.905 28.9276C24.9375 29.2601 25.8825 29.2076 26.635 29.1026C27.475 28.9801 29.19 28.0526 29.5575 27.0376C29.925 26.0226 29.925 25.1651 29.82 24.9726C29.6975 24.7976 29.4175 24.6926 28.98 24.5001C28.5425 24.2551 26.4075 23.2051 26.0225 23.0651C25.62 22.9251 25.375 22.8551 25.0425 23.2751C24.7625 23.7126 23.9225 24.6926 23.6775 24.9726C23.415 25.2701 23.17 25.3051 22.75 25.0951C22.295 24.8676 20.895 24.4126 19.25 22.9426C17.955 21.7876 17.0975 20.3701 16.835 19.9326C16.625 19.5126 16.8175 19.2501 17.0275 19.0576C17.22 18.8651 17.5 18.5501 17.675 18.2876C17.9025 18.0426 17.9725 17.8501 18.1125 17.5701C18.2525 17.2726 18.1825 17.0276 18.0775 16.8176C17.9725 16.6251 17.0975 14.4551 16.73 13.5976C16.38 12.7576 16.03 12.8626 15.75 12.8451C15.505 12.8451 15.225 12.8276 14.9275 12.8276Z" fill="#D6E8EE"/>
</svg>
